<?xml version="1.0" standalone="no"?>
<!DOCTYPE svg PUBLIC "-//W3C//DTD SVG 20010904//EN"
 "http://www.w3.org/TR/2001/REC-SVG-20010904/DTD/svg10.dtd">
<svg version="1.0" xmlns="http://www.w3.org/2000/svg"
 width="500.000000pt" height="500.000000pt" viewBox="0 0 500.000000 500.000000"
 preserveAspectRatio="xMidYMid meet">

<g transform="translate(0.000000,500.000000) scale(0.100000,-0.100000)"
fill="#000000" stroke="none">
<path d="M2375 4139 c-439 -54 -789 -357 -905 -784 -28 -100 -39 -333 -21
-439 38 -221 139 -415 304 -581 146 -146 286 -228 482 -281 87 -23 119 -27
245 -27 80 -1 172 5 205 12 422 88 734 389 836 807 26 106 31 340 10 439 -71
336 -276 604 -576 753 -109 54 -209 82 -358 102 -88 11 -122 11 -222 -1z m360
-78 c258 -71 448 -206 591 -419 115 -170 166 -340 166 -554 0 -178 -27 -297
-104 -453 -70 -141 -189 -282 -313 -371 -75 -53 -213 -121 -312 -151 -82 -25
-101 -27 -268 -27 -153 0 -192 3 -257 22 -326 90 -591 345 -702 676 -57 169
-60 363 -10 581 13 59 81 203 129 275 162 244 383 383 705 444 60 11 306 -4
375 -23z"/>
<path d="M2142 3693 c58 -61 58 -64 58 -567 0 -298 -4 -475 -11 -501 -6 -22
-24 -57 -40 -77 l-30 -38 116 0 115 0 0 581 0 582 88 -6 c121 -8 160 -21 209
-73 88 -91 97 -259 21 -369 -33 -49 -82 -72 -180 -86 l-86 -13 20 -70 c35
-128 137 -288 262 -410 88 -87 172 -129 266 -134 l65 -3 -30 22 c-70 51 -231
228 -291 319 -59 90 -104 183 -104 215 0 9 10 15 25 15 42 0 128 45 164 85 55
63 82 136 83 224 2 159 -68 263 -210 310 -55 19 -86 21 -299 21 l-237 0 26
-27z"/>
<path d="M1486 1678 c-23 -7 -56 -28 -80 -52 -66 -66 -82 -152 -47 -247 34
-88 99 -129 206 -129 145 0 219 73 219 215 -1 46 -7 83 -19 108 -44 94 -159
136 -279 105z m154 -57 c52 -27 75 -73 75 -151 0 -82 -17 -124 -63 -152 -47
-29 -132 -30 -170 -1 -54 40 -67 69 -67 146 0 84 15 121 64 154 42 29 112 31
161 4z"/>
<path d="M2025 1683 c-74 -18 -105 -54 -105 -120 0 -43 45 -91 106 -111 21 -7
56 -20 76 -29 75 -32 63 -112 -18 -128 -36 -6 -137 17 -161 37 -10 8 -13 5
-13 -13 0 -51 37 -69 142 -69 117 0 168 37 168 120 0 73 -14 86 -153 140 -70
27 -89 55 -63 94 9 14 28 29 43 32 26 7 98 -4 136 -21 14 -6 17 -2 17 23 0 28
-3 30 -57 41 -58 11 -83 12 -118 4z"/>
<path d="M910 1466 l0 -216 30 0 29 0 3 83 3 82 42 3 41 3 52 -85 51 -86 46 0
46 0 -40 43 c-58 62 -101 139 -83 145 8 3 27 18 42 33 24 24 28 35 28 86 0 53
-3 62 -31 89 -29 28 -34 29 -145 33 l-114 3 0 -216z m184 163 c30 -14 51 -60
42 -94 -12 -45 -44 -65 -108 -65 l-58 0 0 78 c0 43 3 82 7 85 10 11 90 8 117
-4z"/>
<path d="M2360 1465 l0 -215 35 0 35 0 0 95 0 95 115 0 115 0 0 -95 0 -95 35
0 35 0 0 215 0 215 -35 0 -35 0 0 -95 0 -96 -112 3 -113 3 -3 93 -3 92 -34 0
-35 0 0 -215z"/>
<path d="M2986 1568 c-27 -62 -68 -159 -92 -215 l-43 -103 33 0 c31 0 35 4 56
55 l22 55 102 0 102 0 18 -51 c20 -54 30 -62 70 -57 24 3 25 5 13 28 -7 14
-19 41 -27 60 -7 19 -24 58 -36 85 -12 28 -41 96 -64 153 -41 99 -43 102 -74
102 -31 0 -33 -3 -80 -112z m123 -65 c17 -45 31 -85 31 -88 0 -3 -36 -5 -79
-5 l-80 0 24 58 c45 112 56 135 64 126 5 -5 23 -46 40 -91z"/>
<path d="M3410 1465 l0 -215 30 0 29 0 3 152 3 152 73 -112 c40 -62 77 -112
83 -112 5 0 43 51 84 112 l75 113 0 -153 0 -152 35 0 35 0 0 215 0 215 -24 0
c-19 0 -39 -23 -107 -129 -46 -72 -87 -130 -91 -130 -3 -1 -25 29 -49 67 -122
194 -121 192 -151 192 l-28 0 0 -215z"/>
<path d="M4030 1465 l0 -215 35 0 35 0 0 215 0 215 -35 0 -35 0 0 -215z"/>
</g>
</svg>
