<?xml version="1.0" standalone="no"?>
<!DOCTYPE svg PUBLIC "-//W3C//DTD SVG 20010904//EN"
 "http://www.w3.org/TR/2001/REC-SVG-20010904/DTD/svg10.dtd">
<svg version="1.0" xmlns="http://www.w3.org/2000/svg"
 width="234.000000pt" height="239.000000pt" viewBox="0 0 234.000000 239.000000"
 preserveAspectRatio="xMidYMid meet">

<g transform="translate(0.000000,239.000000) scale(0.100000,-0.100000)"
fill="#000000" stroke="none">
<path d="M965 2251 c-426 -95 -735 -408 -820 -830 -13 -64 -16 -118 -12 -239
5 -183 23 -264 92 -409 141 -299 386 -504 700 -589 86 -23 121 -26 245 -27
153 -1 214 9 340 50 258 87 475 272 603 513 18 36 36 74 39 85 4 11 15 45 27
76 36 99 51 198 51 334 0 231 -49 396 -176 591 -149 229 -395 392 -676 448
-106 22 -309 20 -413 -3z m452 -60 c296 -74 561 -295 679 -571 72 -167 100
-373 75 -548 -64 -436 -400 -779 -837 -853 -102 -17 -308 -7 -409 21 -277 75
-500 259 -635 524 -78 153 -110 284 -110 451 0 276 100 518 294 711 93 92 142
128 253 183 173 86 295 113 483 106 79 -2 155 -11 207 -24z"/>
<path d="M839 1813 c50 -64 52 -89 49 -588 -3 -417 -5 -464 -21 -500 -10 -22
-28 -50 -40 -63 l-21 -23 114 3 115 3 3 579 2 579 91 -6 c190 -14 272 -94 271
-267 0 -173 -67 -244 -254 -266 l-57 -6 6 -32 c25 -130 145 -329 274 -452 104
-98 189 -138 283 -132 l50 3 -42 28 c-52 34 -137 119 -218 220 -96 119 -192
303 -161 311 143 39 187 70 232 164 21 43 29 77 33 138 6 105 -13 166 -75 234
-87 97 -137 110 -436 110 l-228 0 30 -37z"/>
</g>
</svg>
